<svg t="1628058441976" class="icon" viewBox="0 0 1024 1024" version="1.1" xmlns="http://www.w3.org/2000/svg" p-id="5989" width="200" height="200">
    <path d="M617.9328 947.0976H224.4096c-49.3056 0-89.2416-39.936-89.2416-89.2416V314.2656c0-49.3056 39.936-89.2416 89.2416-89.2416h236.288l246.4256 267.7248v365.1072c0.0512 49.3056-39.936 89.2416-89.1904 89.2416z" fill="#4BE2AC" p-id="5990"></path>
    <path d="M808.6016 791.7056H415.0784c-49.3056 0-89.2416-39.936-89.2416-89.2416V158.8736c0-49.3056 39.936-89.2416 89.2416-89.2416h236.288l246.4256 267.7248v365.1072c0.0512 49.3056-39.936 89.2416-89.1904 89.2416z" fill="#4BE2AC" p-id="5991"></path>
    <path d="M325.8368 225.024v477.44c0 49.3056 39.936 89.2416 89.2416 89.2416h292.096V492.7488L460.6976 225.024H325.8368z" fill="#06CC76" p-id="5992"></path>
    <path d="M616.96 546.6112H478.976c-47.9232 0-86.9376-39.0144-86.9376-86.9376V316.5184c0-22.6304 18.3296-40.96 40.96-40.96s40.96 18.3296 40.96 40.96v143.2064c0 2.7648 2.2528 5.0176 5.0176 5.0176h137.984c22.6304 0 40.96 18.3296 40.96 40.96s-18.3296 40.9088-40.96 40.9088zM809.5744 382.72h-137.984c-47.9232 0-86.9376-39.0144-86.9376-86.9376V152.576c0-22.6304 18.3296-40.96 40.96-40.96s40.96 18.3296 40.96 40.96v143.2064c0 2.7648 2.2528 5.0176 5.0176 5.0176h137.984c22.6304 0 40.96 18.3296 40.96 40.96s-18.3296 40.96-40.96 40.96z" fill="#FFFFFF" p-id="5993"></path>
</svg>