<svg t="1628057688900" class="icon" viewBox="0 0 1024 1024" version="1.1" xmlns="http://www.w3.org/2000/svg" p-id="2046" width="200" height="200">
    <path d="M563.2 883.2l288-166.4c12.8-6.4 19.2-19.2 19.2-32V352L582.4 518.4c-6.4 6.4-12.8 6.4-19.2 6.4v358.4z m326.4-633.6c32 19.2 51.2 51.2 51.2 83.2v352c0 38.4-19.2 70.4-51.2 83.2l-307.2 172.8c-32 19.2-70.4 19.2-96 0L179.2 768c-32-19.2-51.2-51.2-51.2-83.2V332.8c0-38.4 19.2-70.4 51.2-83.2l307.2-172.8c32-19.2 70.4-19.2 96 0l307.2 172.8z" fill="#333333" p-id="2047"></path>
</svg>