<svg t="1628058414157" class="icon" viewBox="0 0 1024 1024" version="1.1" xmlns="http://www.w3.org/2000/svg" p-id="5836" width="200" height="200">
    <path d="M454.69 119.167l-334.252 177.28c-46.399 24.61-46.399 77.497 0 102.106l334.251 177.28c33.102 17.556 82.799 17.556 115.9 0l334.251-177.28c46.399-24.61 46.399-77.497 0-102.106l-334.251-177.28c-33.101-17.556-82.798-17.556-115.9 0zM864.507 347.5L540.601 519.293l-0.477 0.248c-14.466 7.36-41.258 7.278-55.447-0.248L160.769 347.5l323.908-171.793c14.347-7.61 41.578-7.61 55.924 0L864.508 347.5z" fill="#2600FF" p-id="5837"></path>
    <path d="M903.6 491.754c15.6-8.306 34.979-2.393 43.285 13.207 8.223 15.443 2.51 34.592-12.741 43.032l-0.466 0.253-360.208 191.79c-34.618 18.432-86.641 18.617-121.608 0.553l-1.054-0.553L90.6 548.246C75 539.94 69.088 520.56 77.393 504.96c8.223-15.444 27.3-21.393 42.816-13.452l0.47 0.245 360.208 191.79c16 8.52 45.725 8.607 62.006 0.262l0.499-0.261L903.6 491.755z" fill="#CDCBFF" p-id="5838"></path>
    <path d="M903.6 656.754c15.6-8.306 34.979-2.393 43.285 13.207 8.223 15.443 2.51 34.592-12.741 43.032l-0.466 0.253-360.208 191.79c-34.618 18.432-86.641 18.617-121.608 0.553l-1.054-0.553L90.6 713.246C75 704.94 69.088 685.56 77.393 669.96c8.223-15.444 27.3-21.393 42.816-13.452l0.47 0.245 360.208 191.79c16 8.52 45.725 8.607 62.006 0.262l0.499-0.261L903.6 656.755z" fill="#CDCBFF" p-id="5839"></path>
</svg>