<svg t="1628058009860" class="icon" viewBox="0 0 1024 1024" version="1.1" xmlns="http://www.w3.org/2000/svg" p-id="3743" width="200" height="200">
    <path d="M1023.401462 126.021423v227.811239a125.680133 125.680133 0 0 1-125.59481 125.59481h-227.811239a125.680133 125.680133 0 0 1-125.59481-125.637471V126.021423A125.680133 125.680133 0 0 1 669.995413 0.426613h227.811239a125.680133 125.680133 0 0 1 125.59481 125.59481z m-543.931328 539.665201v227.811239a125.680133 125.680133 0 0 1-125.594811 125.552149h-227.811239a125.680133 125.680133 0 0 1-125.552149-125.594811v-227.811239a125.680133 125.680133 0 0 1 125.594811-125.552149h227.768577a125.680133 125.680133 0 0 1 125.594811 125.594811z m0-539.665201v227.811239a125.680133 125.680133 0 0 1-125.594811 125.59481h-227.811239A125.680133 125.680133 0 0 1 0.554597 353.790001V126.021423A126.021423 126.021423 0 0 1 126.106746 0.426613h227.768577a125.680133 125.680133 0 0 1 125.594811 125.59481z m225.336884 822.210863a29.222977 29.222977 0 0 0-34.171686 5.204676l-22.439833 23.122414c0 0.68258-1.066532 0.68258-1.706452 0.682581-1.066532 0-1.407822-0.34129-1.749112-0.682581l-42.490636-42.447974c-0.68258 0-0.68258-1.066532-0.68258-1.749113 0-1.023871 0.34129-1.365161 0.68258-1.706451l22.781124-22.823785a31.057412 31.057412 0 0 0 5.204676-34.171686l-2.772983-5.887257a189.842699 189.842699 0 0 1-8.276288-20.00814l-2.090403-6.228547a29.436284 29.436284 0 0 0-27.9858-20.050802h-2.389032a31.825315 31.825315 0 0 1-32.123944-32.081283c0-17.917738 14.163545-32.123944 32.123944-32.123945h2.389032a29.862896 29.862896 0 0 0 27.9858-20.050802l2.090403-6.185885c3.071612-6.911127 5.545966-14.163545 8.276288-20.050802l2.772983-5.844596a29.222977 29.222977 0 0 0-5.204676-34.171685l-22.781124-22.781124c-0.68258 0-0.68258-1.066532-0.68258-1.706452 0-1.066532 0.34129-1.407822 0.68258-1.749112l41.808055-42.490636c0-0.68258 1.023871-0.68258 1.706452-0.68258 1.023871 0 1.365161 0.34129 1.706451 0.68258l22.823785 22.781124c8.958869 7.934998 22.781124 10.366691 34.129025 5.204676l5.887256-2.772983a189.842699 189.842699 0 0 1 20.050802-8.276288l6.228547-2.090403a29.436284 29.436284 0 0 0 20.050802-27.9858v-2.389032c0-17.960399 14.120884-32.123944 32.081283-32.123944 17.917738 0 32.123944 14.163545 32.123945 32.123944v2.047742a29.862896 29.862896 0 0 0 20.34943 27.9858l6.228547 2.090403c6.911127 3.071612 13.822255 5.503305 20.050802 8.276288l5.844596 2.772983c11.390562 6.185886 25.554107 3.412902 34.171686-5.204676l22.781124-22.781124c0-0.68258 1.066532-0.68258 1.706451-0.68258 1.066532 0 1.407822 0.34129 1.749112 0.68258l42.490636 42.447974c0.68258 0 0.68258 1.066532 0.68258 1.749113 0 1.023871-0.34129 1.365161-0.68258 1.706451l-22.781124 22.823785a32.379912 32.379912 0 0 0-5.204676 34.171686l2.772983 5.887257c3.114273 6.527176 6.228547 13.779594 8.276288 20.00814l2.090403 6.228547a29.436284 29.436284 0 0 0 27.9858 20.050802h2.389032c17.960399 0 32.123944 14.120884 32.123944 32.081283 0 17.917738-14.163545 32.123944-32.123944 32.123945h-2.389032a29.862896 29.862896 0 0 0-27.9858 20.050802l-2.090403 6.185885c-3.071612 6.911127-5.545966 13.822255-8.276288 20.050802l-2.772983 5.844596a29.222977 29.222977 0 0 0 5.204676 34.171686l22.781124 22.781124c0.68258 0 0.68258 0.725242 0.68258 1.706451 0 1.066532-0.34129 1.407822-0.68258 1.749112l-42.490636 42.490636c0 0.34129-1.023871 0.68258-1.706451 0.68258-1.023871 0-1.365161-0.34129-1.706451-0.68258l-22.823785-22.781124a32.379912 32.379912 0 0 0-34.171686-5.204676l-5.887257 2.772983a189.842699 189.842699 0 0 1-20.050802 8.276288l-6.185886 2.090403a29.436284 29.436284 0 0 0-20.050801 27.9858v2.389032c0 17.960399-14.120884 32.123944-32.081284 32.123944a31.825315 31.825315 0 0 1-32.123944-32.123944v-2.389032a29.862896 29.862896 0 0 0-20.050802-27.9858l-6.185886-2.090403c-6.911127-3.071612-13.822255-5.545966-20.050801-8.276288l-5.844596-2.772983zM789.233693 718.415967c-34.768944 0-63.991921 28.839026-63.991921 63.991921s28.839026 63.991921 63.991921 63.991921 63.991921-28.839026 63.991921-63.991921c-0.810564-35.152895-28.455074-63.991921-63.991921-63.991921z" p-id="3744"></path>
</svg>