<svg t="1627658562423" class="icon" viewBox="0 0 1024 1024" version="1.1" xmlns="http://www.w3.org/2000/svg" p-id="1272" width="200" height="200">
    <path d="M512 1024c-167.657431 0-425.59194-288.88665-425.59194-644.836272 0-45.138539 2.579345-90.277078 9.027708-135.415617 167.657431-23.214106 319.838791-110.911839 423.012595-243.748111 100.594458 130.256927 247.617128 216.664987 408.826196 242.458438 6.448363 45.138539 10.31738 91.566751 10.317381 136.70529 0 355.949622-232.141058 644.836272-425.59194 644.836272z" fill="#2F77F1" p-id="1273"></path>
    <path d="M640.967254 533.924433h-103.173803v103.173804c0 14.186398-11.607053 25.793451-25.793451 25.793451s-25.793451-11.607053-25.793451-25.793451v-103.173804h-103.173803c-14.186398 0-25.793451-11.607053-25.793451-25.793451s11.607053-25.793451 25.793451-25.793451h103.173803v-103.173803c0-14.186398 11.607053-25.793451 25.793451-25.793451s25.793451 11.607053 25.793451 25.793451v103.173803h103.173803c14.186398 0 25.793451 11.607053 25.793451 25.793451s-11.607053 25.793451-25.793451 25.793451z" fill="#AFFCFE" p-id="1274"></path>
</svg>